<?xml version="1.0" encoding="UTF-8"?>
<mxfile host="app.diagrams.net" modified="2025-08-17T12:30:00.000Z" agent="5.0" etag="xxx" version="22.1.16" type="device">
  <diagram name="IT_Landscape_Map_Fixed" id="landscape-map-fixed">
    <mxGraphModel dx="1422" dy="794" grid="1" gridSize="10" guides="1" tooltips="1" connect="1" arrows="1" fold="1" page="1" pageScale="1" pageWidth="1200" pageHeight="900" math="0" shadow="0">
      <root>
        <mxCell id="0" />
        <mxCell id="1" parent="0" />
        
        <!-- Заголовок -->
        <mxCell id="title" value="Карта IT-ландшафта банка &quot;Стандарт&quot;" style="text;html=1;strokeColor=none;fillColor=none;align=center;verticalAlign=middle;whiteSpace=wrap;rounded=0;fontSize=18;fontStyle=1;" vertex="1" parent="1">
          <mxGeometry x="450" y="20" width="300" height="40" as="geometry" />
        </mxCell>
        
        <!-- Колонки заголовков -->
        <mxCell id="col1" value="Обслуживание в отделениях" style="rounded=1;whiteSpace=wrap;html=1;fillColor=#dae8fc;strokeColor=#6c8ebf;fontSize=11;fontStyle=1;" vertex="1" parent="1">
          <mxGeometry x="200" y="80" width="130" height="50" as="geometry" />
        </mxCell>
        <mxCell id="col2" value="Платежи" style="rounded=1;whiteSpace=wrap;html=1;fillColor=#dae8fc;strokeColor=#6c8ebf;fontSize=11;fontStyle=1;" vertex="1" parent="1">
          <mxGeometry x="340" y="80" width="90" height="50" as="geometry" />
        </mxCell>
        <mxCell id="col3" value="Текущие счета" style="rounded=1;whiteSpace=wrap;html=1;fillColor=#dae8fc;strokeColor=#6c8ebf;fontSize=11;fontStyle=1;" vertex="1" parent="1">
          <mxGeometry x="440" y="80" width="110" height="50" as="geometry" />
        </mxCell>
        <mxCell id="col4" value="Депозиты" style="rounded=1;whiteSpace=wrap;html=1;fillColor=#dae8fc;strokeColor=#6c8ebf;fontSize=11;fontStyle=1;" vertex="1" parent="1">
          <mxGeometry x="560" y="80" width="90" height="50" as="geometry" />
        </mxCell>
        <mxCell id="col5" value="Кредиты" style="rounded=1;whiteSpace=wrap;html=1;fillColor=#dae8fc;strokeColor=#6c8ebf;fontSize=11;fontStyle=1;" vertex="1" parent="1">
          <mxGeometry x="660" y="80" width="90" height="50" as="geometry" />
        </mxCell>
        <mxCell id="col6" value="Консультирование" style="rounded=1;whiteSpace=wrap;html=1;fillColor=#dae8fc;strokeColor=#6c8ebf;fontSize=11;fontStyle=1;" vertex="1" parent="1">
          <mxGeometry x="760" y="80" width="110" height="50" as="geometry" />
        </mxCell>
        <mxCell id="col7" value="Маркетинг" style="rounded=1;whiteSpace=wrap;html=1;fillColor=#dae8fc;strokeColor=#6c8ebf;fontSize=11;fontStyle=1;" vertex="1" parent="1">
          <mxGeometry x="880" y="80" width="90" height="50" as="geometry" />
        </mxCell>
        <mxCell id="col8" value="Ставки" style="rounded=1;whiteSpace=wrap;html=1;fillColor=#dae8fc;strokeColor=#6c8ebf;fontSize=11;fontStyle=1;" vertex="1" parent="1">
          <mxGeometry x="980" y="80" width="90" height="50" as="geometry" />
        </mxCell>
        
        <!-- Строки -->
        <mxCell id="row1" value="Управление обслуживанием в сети отделений (500 чел, 50 отделений)" style="rounded=1;whiteSpace=wrap;html=1;fillColor=#e1d5e7;strokeColor=#9673a6;fontSize=10;fontStyle=1;" vertex="1" parent="1">
          <mxGeometry x="20" y="150" width="170" height="50" as="geometry" />
        </mxCell>
        <mxCell id="row2" value="Управление IT (40 чел)" style="rounded=1;whiteSpace=wrap;html=1;fillColor=#e1d5e7;strokeColor=#9673a6;fontSize=10;fontStyle=1;" vertex="1" parent="1">
          <mxGeometry x="20" y="220" width="170" height="50" as="geometry" />
        </mxCell>
        <mxCell id="row3" value="Управление депозитных продуктов (50 чел)" style="rounded=1;whiteSpace=wrap;html=1;fillColor=#e1d5e7;strokeColor=#9673a6;fontSize=10;fontStyle=1;" vertex="1" parent="1">
          <mxGeometry x="20" y="290" width="170" height="50" as="geometry" />
        </mxCell>
        <mxCell id="row4" value="Управление кредитных продуктов (50 чел)" style="rounded=1;whiteSpace=wrap;html=1;fillColor=#e1d5e7;strokeColor=#9673a6;fontSize=10;fontStyle=1;" vertex="1" parent="1">
          <mxGeometry x="20" y="360" width="170" height="50" as="geometry" />
        </mxCell>
        <mxCell id="row5" value="Кол-центр банка (200 операторов)" style="rounded=1;whiteSpace=wrap;html=1;fillColor=#e1d5e7;strokeColor=#9673a6;fontSize=10;fontStyle=1;" vertex="1" parent="1">
          <mxGeometry x="20" y="430" width="170" height="50" as="geometry" />
        </mxCell>
        <mxCell id="row6" value="Партнерский кол-центр (100 чел)" style="rounded=1;whiteSpace=wrap;html=1;fillColor=#e1d5e7;strokeColor=#9673a6;fontSize=10;fontStyle=1;" vertex="1" parent="1">
          <mxGeometry x="20" y="500" width="170" height="50" as="geometry" />
        </mxCell>
        <mxCell id="row7" value="Команда цифровой трансформации (10 чел)" style="rounded=1;whiteSpace=wrap;html=1;fillColor=#e1d5e7;strokeColor=#9673a6;fontSize=10;fontStyle=1;" vertex="1" parent="1">
          <mxGeometry x="20" y="570" width="170" height="50" as="geometry" />
        </mxCell>
        
        <!-- Ячейки матрицы - Строка 1 -->
        <mxCell id="cell11" value="✅ АБС" style="rounded=1;whiteSpace=wrap;html=1;fillColor=#d5e8d4;strokeColor=#82b366;fontSize=10;" vertex="1" parent="1">
          <mxGeometry x="200" y="150" width="130" height="50" as="geometry" />
        </mxCell>
        <mxCell id="cell12" value="✅ Интернет-банк" style="rounded=1;whiteSpace=wrap;html=1;fillColor=#d5e8d4;strokeColor=#82b366;fontSize=10;" vertex="1" parent="1">
          <mxGeometry x="340" y="150" width="90" height="50" as="geometry" />
        </mxCell>
        <mxCell id="cell13" value="✅ Интернет-банк" style="rounded=1;whiteSpace=wrap;html=1;fillColor=#d5e8d4;strokeColor=#82b366;fontSize=10;" vertex="1" parent="1">
          <mxGeometry x="440" y="150" width="110" height="50" as="geometry" />
        </mxCell>
        <mxCell id="cell14" value="🔴 АБС (ручной)" style="rounded=1;whiteSpace=wrap;html=1;fillColor=#f8cecc;strokeColor=#b85450;fontSize=10;" vertex="1" parent="1">
          <mxGeometry x="560" y="150" width="90" height="50" as="geometry" />
        </mxCell>
        <mxCell id="cell15" value="✅ АБС" style="rounded=1;whiteSpace=wrap;html=1;fillColor=#d5e8d4;strokeColor=#82b366;fontSize=10;" vertex="1" parent="1">
          <mxGeometry x="660" y="150" width="90" height="50" as="geometry" />
        </mxCell>
        <mxCell id="cell16" value="✅ Кол-центр" style="rounded=1;whiteSpace=wrap;html=1;fillColor=#d5e8d4;strokeColor=#82b366;fontSize=10;" vertex="1" parent="1">
          <mxGeometry x="760" y="150" width="110" height="50" as="geometry" />
        </mxCell>
        <mxCell id="cell17" value="✅ Сайт" style="rounded=1;whiteSpace=wrap;html=1;fillColor=#d5e8d4;strokeColor=#82b366;fontSize=10;" vertex="1" parent="1">
          <mxGeometry x="880" y="150" width="90" height="50" as="geometry" />
        </mxCell>
        <mxCell id="cell18" value="🔴 Excel" style="rounded=1;whiteSpace=wrap;html=1;fillColor=#f8cecc;strokeColor=#b85450;fontSize=10;" vertex="1" parent="1">
          <mxGeometry x="980" y="150" width="90" height="50" as="geometry" />
        </mxCell>
        
        <!-- Строка 2 -->
        <mxCell id="cell21" value="🔧 Поддержка АБС" style="rounded=1;whiteSpace=wrap;html=1;fillColor=#fff2cc;strokeColor=#d6b656;fontSize=10;" vertex="1" parent="1">
          <mxGeometry x="200" y="220" width="130" height="50" as="geometry" />
        </mxCell>
        <mxCell id="cell22" value="🔧 Поддержка интернет-банка" style="rounded=1;whiteSpace=wrap;html=1;fillColor=#fff2cc;strokeColor=#d6b656;fontSize=10;" vertex="1" parent="1">
          <mxGeometry x="340" y="220" width="90" height="50" as="geometry" />
        </mxCell>
        <mxCell id="cell23" value="🔧 Поддержка интернет-банка" style="rounded=1;whiteSpace=wrap;html=1;fillColor=#fff2cc;strokeColor=#d6b656;fontSize=10;" vertex="1" parent="1">
          <mxGeometry x="440" y="220" width="110" height="50" as="geometry" />
        </mxCell>
        <mxCell id="cell24" value="🔧 Поддержка АБС" style="rounded=1;whiteSpace=wrap;html=1;fillColor=#fff2cc;strokeColor=#d6b656;fontSize=10;" vertex="1" parent="1">
          <mxGeometry x="560" y="220" width="90" height="50" as="geometry" />
        </mxCell>
        <mxCell id="cell25" value="🔧 Поддержка АБС" style="rounded=1;whiteSpace=wrap;html=1;fillColor=#fff2cc;strokeColor=#d6b656;fontSize=10;" vertex="1" parent="1">
          <mxGeometry x="660" y="220" width="90" height="50" as="geometry" />
        </mxCell>
        <mxCell id="cell26" value="🔧 Поддержка кол-центра" style="rounded=1;whiteSpace=wrap;html=1;fillColor=#fff2cc;strokeColor=#d6b656;fontSize=10;" vertex="1" parent="1">
          <mxGeometry x="760" y="220" width="110" height="50" as="geometry" />
        </mxCell>
        <mxCell id="cell27" value="🔧 Поддержка сайта" style="rounded=1;whiteSpace=wrap;html=1;fillColor=#fff2cc;strokeColor=#d6b656;fontSize=10;" vertex="1" parent="1">
          <mxGeometry x="880" y="220" width="90" height="50" as="geometry" />
        </mxCell>
        <mxCell id="cell28" value="🔧 Поддержка Excel" style="rounded=1;whiteSpace=wrap;html=1;fillColor=#fff2cc;strokeColor=#d6b656;fontSize=10;" vertex="1" parent="1">
          <mxGeometry x="980" y="220" width="90" height="50" as="geometry" />
        </mxCell>
        
        <!-- Строка 3 -->
        <mxCell id="cell31" value="❌" style="rounded=1;whiteSpace=wrap;html=1;fillColor=#f8cecc;strokeColor=#b85450;fontSize=10;" vertex="1" parent="1">
          <mxGeometry x="200" y="290" width="130" height="50" as="geometry" />
        </mxCell>
        <mxCell id="cell32" value="❌" style="rounded=1;whiteSpace=wrap;html=1;fillColor=#f8cecc;strokeColor=#b85450;fontSize=10;" vertex="1" parent="1">
          <mxGeometry x="340" y="290" width="90" height="50" as="geometry" />
        </mxCell>
        <mxCell id="cell33" value="❌" style="rounded=1;whiteSpace=wrap;html=1;fillColor=#f8cecc;strokeColor=#b85450;fontSize=10;" vertex="1" parent="1">
          <mxGeometry x="440" y="290" width="110" height="50" as="geometry" />
        </mxCell>
        <mxCell id="cell34" value="✅ АБС + Excel" style="rounded=1;whiteSpace=wrap;html=1;fillColor=#d5e8d4;strokeColor=#82b366;fontSize=10;" vertex="1" parent="1">
          <mxGeometry x="560" y="290" width="90" height="50" as="geometry" />
        </mxCell>
        <mxCell id="cell35" value="❌" style="rounded=1;whiteSpace=wrap;html=1;fillColor=#f8cecc;strokeColor=#b85450;fontSize=10;" vertex="1" parent="1">
          <mxGeometry x="660" y="290" width="90" height="50" as="geometry" />
        </mxCell>
        <mxCell id="cell36" value="❌" style="rounded=1;whiteSpace=wrap;html=1;fillColor=#f8cecc;strokeColor=#b85450;fontSize=10;" vertex="1" parent="1">
          <mxGeometry x="760" y="290" width="110" height="50" as="geometry" />
        </mxCell>
        <mxCell id="cell37" value="❌" style="rounded=1;whiteSpace=wrap;html=1;fillColor=#f8cecc;strokeColor=#b85450;fontSize=10;" vertex="1" parent="1">
          <mxGeometry x="880" y="290" width="90" height="50" as="geometry" />
        </mxCell>
        <mxCell id="cell38" value="✅ Excel" style="rounded=1;whiteSpace=wrap;html=1;fillColor=#d5e8d4;strokeColor=#82b366;fontSize=10;" vertex="1" parent="1">
          <mxGeometry x="980" y="290" width="90" height="50" as="geometry" />
        </mxCell>
        
        <!-- Строка 4 -->
        <mxCell id="cell41" value="❌" style="rounded=1;whiteSpace=wrap;html=1;fillColor=#f8cecc;strokeColor=#b85450;fontSize=10;" vertex="1" parent="1">
          <mxGeometry x="200" y="360" width="130" height="50" as="geometry" />
        </mxCell>
        <mxCell id="cell42" value="❌" style="rounded=1;whiteSpace=wrap;html=1;fillColor=#f8cecc;strokeColor=#b85450;fontSize=10;" vertex="1" parent="1">
          <mxGeometry x="340" y="360" width="90" height="50" as="geometry" />
        </mxCell>
        <mxCell id="cell43" value="❌" style="rounded=1;whiteSpace=wrap;html=1;fillColor=#f8cecc;strokeColor=#b85450;fontSize=10;" vertex="1" parent="1">
          <mxGeometry x="440" y="360" width="110" height="50" as="geometry" />
        </mxCell>
        <mxCell id="cell44" value="✅ Excel (ставки)" style="rounded=1;whiteSpace=wrap;html=1;fillColor=#d5e8d4;strokeColor=#82b366;fontSize=10;" vertex="1" parent="1">
          <mxGeometry x="560" y="360" width="90" height="50" as="geometry" />
        </mxCell>
        <mxCell id="cell45" value="✅ АБС" style="rounded=1;whiteSpace=wrap;html=1;fillColor=#d5e8d4;strokeColor=#82b366;fontSize=10;" vertex="1" parent="1">
          <mxGeometry x="660" y="360" width="90" height="50" as="geometry" />
        </mxCell>
        <mxCell id="cell46" value="❌" style="rounded=1;whiteSpace=wrap;html=1;fillColor=#f8cecc;strokeColor=#b85450;fontSize=10;" vertex="1" parent="1">
          <mxGeometry x="760" y="360" width="110" height="50" as="geometry" />
        </mxCell>
        <mxCell id="cell47" value="❌" style="rounded=1;whiteSpace=wrap;html=1;fillColor=#f8cecc;strokeColor=#b85450;fontSize=10;" vertex="1" parent="1">
          <mxGeometry x="880" y="360" width="90" height="50" as="geometry" />
        </mxCell>
        <mxCell id="cell48" value="✅ Excel" style="rounded=1;whiteSpace=wrap;html=1;fillColor=#d5e8d4;strokeColor=#82b366;fontSize=10;" vertex="1" parent="1">
          <mxGeometry x="980" y="360" width="90" height="50" as="geometry" />
        </mxCell>
        
        <!-- Строка 5 -->
        <mxCell id="cell51" value="❌" style="rounded=1;whiteSpace=wrap;html=1;fillColor=#f8cecc;strokeColor=#b85450;fontSize=10;" vertex="1" parent="1">
          <mxGeometry x="200" y="430" width="130" height="50" as="geometry" />
        </mxCell>
        <mxCell id="cell52" value="❌" style="rounded=1;whiteSpace=wrap;html=1;fillColor=#f8cecc;strokeColor=#b85450;fontSize=10;" vertex="1" parent="1">
          <mxGeometry x="340" y="430" width="90" height="50" as="geometry" />
        </mxCell>
        <mxCell id="cell53" value="❌" style="rounded=1;whiteSpace=wrap;html=1;fillColor=#f8cecc;strokeColor=#b85450;fontSize=10;" vertex="1" parent="1">
          <mxGeometry x="440" y="430" width="110" height="50" as="geometry" />
        </mxCell>
        <mxCell id="cell54" value="✅ Система кол-центра" style="rounded=1;whiteSpace=wrap;html=1;fillColor=#d5e8d4;strokeColor=#82b366;fontSize=10;" vertex="1" parent="1">
          <mxGeometry x="560" y="430" width="90" height="50" as="geometry" />
        </mxCell>
        <mxCell id="cell55" value="❌" style="rounded=1;whiteSpace=wrap;html=1;fillColor=#f8cecc;strokeColor=#b85450;fontSize=10;" vertex="1" parent="1">
          <mxGeometry x="660" y="430" width="90" height="50" as="geometry" />
        </mxCell>
        <mxCell id="cell56" value="✅ Система кол-центра" style="rounded=1;whiteSpace=wrap;html=1;fillColor=#d5e8d4;strokeColor=#82b366;fontSize=10;" vertex="1" parent="1">
          <mxGeometry x="760" y="430" width="110" height="50" as="geometry" />
        </mxCell>
        <mxCell id="cell57" value="❌" style="rounded=1;whiteSpace=wrap;html=1;fillColor=#f8cecc;strokeColor=#b85450;fontSize=10;" vertex="1" parent="1">
          <mxGeometry x="880" y="430" width="90" height="50" as="geometry" />
        </mxCell>
        <mxCell id="cell58" value="❌" style="rounded=1;whiteSpace=wrap;html=1;fillColor=#f8cecc;strokeColor=#b85450;fontSize=10;" vertex="1" parent="1">
          <mxGeometry x="980" y="430" width="90" height="50" as="geometry" />
        </mxCell>
        
        <!-- Строка 6 -->
        <mxCell id="cell61" value="❌" style="rounded=1;whiteSpace=wrap;html=1;fillColor=#f8cecc;strokeColor=#b85450;fontSize=10;" vertex="1" parent="1">
          <mxGeometry x="200" y="500" width="130" height="50" as="geometry" />
        </mxCell>
        <mxCell id="cell62" value="❌" style="rounded=1;whiteSpace=wrap;html=1;fillColor=#f8cecc;strokeColor=#b85450;fontSize=10;" vertex="1" parent="1">
          <mxGeometry x="340" y="500" width="90" height="50" as="geometry" />
        </mxCell>
        <mxCell id="cell63" value="❌" style="rounded=1;whiteSpace=wrap;html=1;fillColor=#f8cecc;strokeColor=#b85450;fontSize=10;" vertex="1" parent="1">
          <mxGeometry x="440" y="500" width="110" height="50" as="geometry" />
        </mxCell>
        <mxCell id="cell64" value="❌" style="rounded=1;whiteSpace=wrap;html=1;fillColor=#f8cecc;strokeColor=#b85450;fontSize=10;" vertex="1" parent="1">
          <mxGeometry x="560" y="500" width="90" height="50" as="geometry" />
        </mxCell>
        <mxCell id="cell65" value="❌" style="rounded=1;whiteSpace=wrap;html=1;fillColor=#f8cecc;strokeColor=#b85450;fontSize=10;" vertex="1" parent="1">
          <mxGeometry x="660" y="500" width="90" height="50" as="geometry" />
        </mxCell>
        <mxCell id="cell66" value="✅ Внешняя система" style="rounded=1;whiteSpace=wrap;html=1;fillColor=#d5e8d4;strokeColor=#82b366;fontSize=10;" vertex="1" parent="1">
          <mxGeometry x="760" y="500" width="110" height="50" as="geometry" />
        </mxCell>
        <mxCell id="cell67" value="❌" style="rounded=1;whiteSpace=wrap;html=1;fillColor=#f8cecc;strokeColor=#b85450;fontSize=10;" vertex="1" parent="1">
          <mxGeometry x="880" y="500" width="90" height="50" as="geometry" />
        </mxCell>
        <mxCell id="cell68" value="❌" style="rounded=1;whiteSpace=wrap;html=1;fillColor=#f8cecc;strokeColor=#b85450;fontSize=10;" vertex="1" parent="1">
          <mxGeometry x="980" y="500" width="90" height="50" as="geometry" />
        </mxCell>
        
        <!-- Строка 7 -->
        <mxCell id="cell71" value="🔧 Планирование" style="rounded=1;whiteSpace=wrap;html=1;fillColor=#fff2cc;strokeColor=#d6b656;fontSize=10;" vertex="1" parent="1">
          <mxGeometry x="200" y="570" width="130" height="50" as="geometry" />
        </mxCell>
        <mxCell id="cell72" value="🔧 Планирование" style="rounded=1;whiteSpace=wrap;html=1;fillColor=#fff2cc;strokeColor=#d6b656;fontSize=10;" vertex="1" parent="1">
          <mxGeometry x="340" y="570" width="90" height="50" as="geometry" />
        </mxCell>
        <mxCell id="cell73" value="🔧 Планирование" style="rounded=1;whiteSpace=wrap;html=1;fillColor=#fff2cc;strokeColor=#d6b656;fontSize=10;" vertex="1" parent="1">
          <mxGeometry x="440" y="570" width="110" height="50" as="geometry" />
        </mxCell>
        <mxCell id="cell74" value="🔧 Планирование" style="rounded=1;whiteSpace=wrap;html=1;fillColor=#fff2cc;strokeColor=#d6b656;fontSize=10;" vertex="1" parent="1">
          <mxGeometry x="560" y="570" width="90" height="50" as="geometry" />
        </mxCell>
        <mxCell id="cell75" value="🔧 Планирование" style="rounded=1;whiteSpace=wrap;html=1;fillColor=#fff2cc;strokeColor=#d6b656;fontSize=10;" vertex="1" parent="1">
          <mxGeometry x="660" y="570" width="90" height="50" as="geometry" />
        </mxCell>
        <mxCell id="cell76" value="🔧 Планирование" style="rounded=1;whiteSpace=wrap;html=1;fillColor=#fff2cc;strokeColor=#d6b656;fontSize=10;" vertex="1" parent="1">
          <mxGeometry x="760" y="570" width="110" height="50" as="geometry" />
        </mxCell>
        <mxCell id="cell77" value="🔧 Планирование" style="rounded=1;whiteSpace=wrap;html=1;fillColor=#fff2cc;strokeColor=#d6b656;fontSize=10;" vertex="1" parent="1">
          <mxGeometry x="880" y="570" width="90" height="50" as="geometry" />
        </mxCell>
        <mxCell id="cell78" value="🔧 Планирование" style="rounded=1;whiteSpace=wrap;html=1;fillColor=#fff2cc;strokeColor=#d6b656;fontSize=10;" vertex="1" parent="1">
          <mxGeometry x="980" y="570" width="90" height="50" as="geometry" />
        </mxCell>
        
        <!-- Легенда -->
        <mxCell id="legend" value="Легенда:" style="text;html=1;strokeColor=none;fillColor=none;align=left;verticalAlign=middle;whiteSpace=wrap;rounded=0;fontSize=12;fontStyle=1;" vertex="1" parent="1">
          <mxGeometry x="20" y="650" width="80" height="30" as="geometry" />
        </mxCell>
        <mxCell id="legend1" value="✅ Система поддерживает функцию" style="rounded=1;whiteSpace=wrap;html=1;fillColor=#d5e8d4;strokeColor=#82b366;fontSize=11;" vertex="1" parent="1">
          <mxGeometry x="20" y="690" width="220" height="30" as="geometry" />
        </mxCell>
        <mxCell id="legend2" value="🔴 Система не поддерживает функцию" style="rounded=1;whiteSpace=wrap;html=1;fillColor=#f8cecc;strokeColor=#b85450;fontSize=11;" vertex="1" parent="1">
          <mxGeometry x="260" y="690" width="240" height="30" as="geometry" />
        </mxCell>
        <mxCell id="legend3" value="🔧 Поддержка/планирование" style="rounded=1;whiteSpace=wrap;html=1;fillColor=#fff2cc;strokeColor=#d6b656;fontSize=11;" vertex="1" parent="1">
          <mxGeometry x="520" y="690" width="200" height="30" as="geometry" />
        </mxCell>
        
      </root>
    </mxGraphModel>
  </diagram>
</mxfile>
